<svg width="96" height="96" viewBox="0 0 96 96" fill="none" xmlns="http://www.w3.org/2000/svg">
<path d="M20 78.0008V24.8008C20 20.3204 20 18.0785 20.8719 16.3672C21.6389 14.8619 22.8619 13.6389 24.3672 12.8719C26.0785 12 28.3204 12 32.8008 12H69.6008C71.841 12 72.9627 12 73.8183 12.436C74.571 12.8195 75.179 13.4309 75.5625 14.1836C75.9985 15.0392 76 16.1602 76 18.4004V65.6004C76 67.8406 75.9985 68.9591 75.5625 69.8148C75.179 70.5674 74.5717 71.181 73.8191 71.5645C72.9643 72 71.844 72 69.6081 72H29C24.0294 72 20 76.0294 20 81C20 82.6569 21.3431 84 23 84H65.6081C67.844 84 68.9643 84 69.8191 83.5645C70.5717 83.181 71.179 82.5678 71.5625 81.8152C71.9985 80.9595 72 79.8402 72 77.6V72" stroke="black" stroke-width="8" stroke-linecap="round" stroke-linejoin="round"/>
</svg>
