<svg width="12" height="12" viewBox="0 0 12 12" fill="none" xmlns="http://www.w3.org/2000/svg">
<path d="M3 3.6001V8.34268C3 9.02321 3 9.36341 3.10206 9.57164C3.29122 9.95757 3.70579 10.1794 4.13184 10.1227C4.3617 10.0921 4.64482 9.90337 5.21105 9.52588L5.21241 9.52497C5.43684 9.37535 5.54907 9.30053 5.66648 9.25903C5.8821 9.18282 6.11738 9.18282 6.33301 9.25903C6.45065 9.30061 6.56332 9.37573 6.78866 9.52595C7.35489 9.90344 7.63833 10.092 7.86819 10.1226C8.29424 10.1793 8.70879 9.95757 8.89795 9.57164C9 9.36343 9 9.0231 9 8.34268V3.59846C9 3.0395 9 2.7596 8.89111 2.5459C8.79524 2.35774 8.64186 2.20487 8.4537 2.10899C8.23979 2 7.96015 2 7.4001 2H4.6001C4.04005 2 3.75981 2 3.5459 2.10899C3.35774 2.20487 3.20487 2.35774 3.10899 2.5459C3 2.75981 3 3.04005 3 3.6001Z" stroke="currentColor" stroke-width="0.7" stroke-linecap="round" stroke-linejoin="round"/>
</svg>
