<svg width="22" height="22" viewBox="0 0 22 22" fill="none" xmlns="http://www.w3.org/2000/svg">
<path d="M3.66666 7.33325H18.3333M3.66666 7.33325V15.4001C3.66666 16.4269 3.66666 16.94 3.86648 17.3321C4.04225 17.6771 4.32251 17.9579 4.66747 18.1336C5.05926 18.3333 5.5724 18.3333 6.59716 18.3333H15.4028C16.4276 18.3333 16.94 18.3333 17.3318 18.1336C17.6767 17.9579 17.9579 17.6771 18.1337 17.3321C18.3333 16.9404 18.3333 16.428 18.3333 15.4032V7.33325M3.66666 7.33325V6.6001C3.66666 5.57334 3.66666 5.05957 3.86648 4.6674C4.04225 4.32244 4.32251 4.04217 4.66747 3.86641C5.05964 3.66659 5.57341 3.66659 6.60017 3.66659H7.33332M18.3333 7.33325V6.59709C18.3333 5.57233 18.3333 5.05919 18.1337 4.6674C17.9579 4.32244 17.6767 4.04217 17.3318 3.86641C16.9396 3.66659 16.4269 3.66659 15.4002 3.66659H14.6667M14.6667 1.83325V3.66659M14.6667 3.66659H7.33332M7.33332 1.83325V3.66659" stroke="black" stroke-width="2" stroke-linecap="round" stroke-linejoin="round"/>
</svg>
