<svg width="48" height="48" viewBox="0 0 48 48" fill="none" xmlns="http://www.w3.org/2000/svg">
<path d="M8 16H40M8 16V33.6004C8 35.8406 8 36.9601 8.43597 37.8158C8.81947 38.5684 9.43095 39.181 10.1836 39.5645C11.0384 40 12.158 40 14.3938 40H33.6062C35.842 40 36.96 40 37.8148 39.5645C38.5674 39.181 39.181 38.5684 39.5645 37.8158C40 36.961 40 35.843 40 33.6072V16M8 16V14.4004C8 12.1602 8 11.0392 8.43597 10.1836C8.81947 9.43095 9.43095 8.81947 10.1836 8.43597C11.0392 8 12.1602 8 14.4004 8H16M40 16V14.3938C40 12.158 40 11.0384 39.5645 10.1836C39.181 9.43095 38.5674 8.81947 37.8148 8.43597C36.9591 8 35.8406 8 33.6004 8H32M16 8H32M16 8V4M32 8V4M23.5 32C23.7761 32 24 31.7761 24 31.5V24.5C24 24.2239 23.7761 24 23.5 24H16.5C16.2239 24 16 24.2239 16 24.5V31.5C16 31.7761 16.2239 32 16.5 32H23.5Z" stroke="#007EFF" stroke-width="4" stroke-linecap="round" stroke-linejoin="round"/>
</svg>
