<svg width="48" height="48" viewBox="0 0 48 48" fill="none" xmlns="http://www.w3.org/2000/svg">
<path d="M8 40H21.8866M21.8866 40H22.1134M21.8866 40C21.9243 40.0003 21.9621 40.0005 22 40.0005C22.0379 40.0005 22.0757 40.0003 22.1134 40M21.8866 40C14.2068 39.939 8 33.6937 8 25.9995V17.8457C8 16.8261 8.8261 16 9.8457 16H34.1534C35.173 16 36 16.8261 36 17.8457V18M22.1134 40H36M22.1134 40C29.7932 39.939 36 33.6937 36 25.9995M36 18H39C41.7614 18 44 20.2386 44 23C44 25.7614 41.7614 28 39 28H36V25.9995M36 18V25.9995M30 6L28 10M24 6L22 10M18 6L16 10" stroke="black" stroke-width="3.5" stroke-linecap="round" stroke-linejoin="round"/>
</svg>
