<svg width="96" height="96" viewBox="0 0 96 96" fill="none" xmlns="http://www.w3.org/2000/svg">
<path d="M48.0137 9.80005C53.3863 9.80005 58.3467 10.8061 62.9375 12.7893C67.6122 14.8088 71.6416 17.5305 75.0625 20.9504C78.4829 24.37 81.2024 28.3958 83.2168 33.0647C85.1957 37.6514 86.1992 42.6083 86.1992 47.9778C86.1992 53.3494 85.1945 58.3039 83.2139 62.884C81.1977 67.5462 78.4732 71.5695 75.043 74.9895C71.6095 78.4126 67.5787 81.1335 62.916 83.1497C58.3378 85.1292 53.3896 86.1331 48.0303 86.1331C42.6635 86.133 37.7104 85.1318 33.1279 83.1584C28.468 81.1516 24.4377 78.4281 21.0039 74.9885C17.5672 71.5459 14.8454 67.515 12.8389 62.8635C10.8671 58.2927 9.86621 53.3454 9.86621 47.9797C9.86626 42.6088 10.8681 37.6518 12.8418 33.0657C14.8491 28.4018 17.5688 24.3752 21 20.9514C24.4359 17.5231 28.4666 14.8007 33.125 12.7844C37.6981 10.8051 42.6463 9.80007 48.0137 9.80005ZM47.9688 12.0002C38.0425 12.0002 29.4737 15.515 22.498 22.4797C15.5151 29.4517 11.999 38.0504 11.999 48.0315C11.9991 57.9581 15.516 66.5268 22.4834 73.5022C29.4572 80.4841 38.0538 84.0002 48.0303 84.0002C57.957 84.0002 66.5255 80.4833 73.501 73.5159C80.483 66.542 84 57.9456 84 47.969C84 38.0428 80.4842 29.4749 73.5195 22.4993C66.5476 15.5163 57.9498 12.0003 47.9688 12.0002ZM48.0342 62.7668C48.7648 62.7669 49.0716 62.9634 49.3174 63.2219C49.6179 63.5382 49.833 63.9421 49.833 64.7346C49.833 65.5042 49.6267 65.7934 49.4141 65.9973C49.1528 66.2478 48.7828 66.467 47.9648 66.467C47.1543 66.467 46.8186 66.2504 46.5908 66.0256C46.3786 65.8163 46.166 65.5066 46.166 64.7112C46.166 63.9438 46.3748 63.5603 46.6768 63.2512C46.9541 62.9674 47.2946 62.7668 48.0342 62.7668ZM49.2998 30.0999V48.5999H47.166V30.0999H49.2998Z" fill="black" stroke="black" stroke-width="8"/>
</svg>
