<svg width="22" height="22" viewBox="0 0 22 22" fill="none" xmlns="http://www.w3.org/2000/svg">
<path d="M8.25001 15.5833H13.75M8.25001 12.8333H13.75M11.917 2.7508C11.8294 2.75 11.7309 2.75 11.6185 2.75H7.51686C6.49009 2.75 5.97633 2.75 5.58416 2.94982C5.23919 3.12559 4.95893 3.40585 4.78316 3.75081C4.58334 4.14299 4.58334 4.65675 4.58334 5.68351V16.3168C4.58334 17.3436 4.58334 17.8567 4.78317 18.2489C4.95893 18.5939 5.23919 18.8746 5.58416 19.0504C5.97595 19.25 6.4891 19.25 7.51387 19.25L14.4862 19.25C15.5109 19.25 16.0233 19.25 16.4151 19.0504C16.7601 18.8746 17.0413 18.5939 17.2171 18.2489C17.4167 17.8571 17.4167 17.3447 17.4167 16.3199V8.54854C17.4167 8.4361 17.4166 8.33757 17.4158 8.25M11.917 2.7508C12.1787 2.75319 12.3436 2.76289 12.5017 2.80085C12.6887 2.84576 12.868 2.91983 13.0321 3.02035C13.217 3.13369 13.3758 3.2925 13.6927 3.60938L16.5577 6.4744C16.8748 6.79148 17.0325 6.94958 17.1459 7.13459C17.2464 7.29863 17.3207 7.47748 17.3657 7.66455C17.4036 7.82264 17.4134 7.98833 17.4158 8.25M11.917 2.7508L11.9167 5.31686C11.9167 6.34362 11.9167 6.85681 12.1165 7.24898C12.2923 7.59394 12.5725 7.87461 12.9175 8.05037C13.3093 8.25 13.8224 8.25 14.8472 8.25H17.4158" stroke="black" stroke-width="2" stroke-linecap="round" stroke-linejoin="round"/>
</svg>
