<svg width="300" height="300" viewBox="0 0 300 300" fill="none" xmlns="http://www.w3.org/2000/svg">
<rect width="300" height="300" rx="80" fill="#111111"/>
<path d="M85.2188 122.625V182H71.7812V134.812H47.4062V182H33.9688V122.625H85.2188ZM120.844 182.781C113.448 182.781 107.51 180.594 103.031 176.219C98.5521 171.74 96.3125 165.854 96.3125 158.562C96.3125 151.271 98.5521 145.438 103.031 141.062C107.51 136.583 113.448 134.344 120.844 134.344C128.24 134.344 134.177 136.583 138.656 141.062C143.135 145.438 145.375 151.271 145.375 158.562C145.375 165.854 143.135 171.74 138.656 176.219C134.177 180.594 128.24 182.781 120.844 182.781ZM120.844 172.469C124.49 172.469 127.354 171.271 129.438 168.875C131.521 166.375 132.562 162.938 132.562 158.562C132.562 154.188 131.521 150.802 129.438 148.406C127.354 145.906 124.49 144.656 120.844 144.656C117.198 144.656 114.333 145.906 112.25 148.406C110.167 150.802 109.125 154.188 109.125 158.562C109.125 162.938 110.167 166.375 112.25 168.875C114.333 171.271 117.198 172.469 120.844 172.469ZM192.719 135.125V146.375H176.469V182H163.969V146.375H147.719V135.125H192.719ZM201.469 135.125H213.969V182H201.469V135.125ZM201 118.562H214.438V129.188H201V118.562ZM271 171.062V182C269.646 182.104 267.823 182.156 265.531 182.156C258.24 182.156 254.594 178.771 254.594 172V163.719H240.062V182H227.562V119.5H240.062V152.312H246.156L257.406 135.125H270.531L258.656 152.312H266.625V168.719C266.625 169.448 266.833 170.021 267.25 170.438C267.667 170.854 268.24 171.062 268.969 171.062H271Z" fill="white"/>
</svg>
