<svg width="22" height="22" viewBox="0 0 22 22" fill="none" xmlns="http://www.w3.org/2000/svg">
<path d="M19.25 18.3334C19.25 16.7369 17.7195 15.3788 15.5833 14.8754M13.75 18.3335C13.75 16.3085 11.2876 14.6668 8.25 14.6668C5.21243 14.6668 2.75 16.3085 2.75 18.3335M13.75 11.9168C15.775 11.9168 17.4167 10.2752 17.4167 8.25016C17.4167 6.22512 15.775 4.5835 13.75 4.5835M8.25 11.9168C6.22496 11.9168 4.58333 10.2752 4.58333 8.25016C4.58333 6.22512 6.22496 4.5835 8.25 4.5835C10.275 4.5835 11.9167 6.22512 11.9167 8.25016C11.9167 10.2752 10.275 11.9168 8.25 11.9168Z" stroke="black" stroke-width="2" stroke-linecap="round" stroke-linejoin="round"/>
</svg>
